# AST/ASF file generated using VICON BodyLanguage
# -----------------------------------------------
:version 1.10
:name VICON
:units
  mass 1.0
  length 0.45
  angle deg
:documentation
   .ast/.asf automatically generated from VICON data using
   VICON BodyBuilder and BodyLanguage model FoxedUp or BRILLIANT.MOD
:root
   order TX TY TZ RX RY RZ
   axis XYZ
   position 0 0 0  
   orientation 0 0 0 
:bonedata
  begin
     id 1 
     name lhipjoint
     direction 0.682418 -0.694059 0.22932 
     length 2.25561 
     axis 0 0 0  XYZ
  end
  begin
     id 2 
     name lfemur
     direction 0.34202 -0.939693 0  
     length 6.96448  
     axis 0 0 20  XYZ
    dof rx ry rz
    limits (-160.0 20.0)
           (-70.0 70.0)
           (-60.0 70.0)
  end
  begin
     id 3 
     name ltibia
     direction 0.34202 -0.939693 0   
     length 6.88553   
     axis 0 0 20   XYZ
    dof rx
    limits (-10.0 170.0)
  end
  begin
     id 4 
     name lfoot
     direction 0.0723587 -0.198804 0.977364   
     length 1.88518   
     axis -90 7.62852e-016 20   XYZ
    dof rx rz
    limits (-45.0 90.0)
           (-70.0 20.0)
  end
  begin
     id 5 
     name ltoes
     direction 1.53558e-011 -4.21962e-011 1   
     length 0.952124   
     axis -90 7.62852e-016 20   XYZ
    dof rx
    limits (-90.0 20.0)
  end
  begin
     id 6 
     name rhipjoint
     direction -0.657603 -0.71533 0.236348   
     length 2.18854  
     axis 0 0 0  XYZ 
  end
  begin
     id 7 
     name rfemur
     direction -0.34202 -0.939693 0   
     length 6.86686   
     axis 0 0 -20   XYZ
    dof rx ry rz
    limits (-160.0 20.0)
           (-70.0 70.0)
           (-70.0 60.0)
  end
  begin
     id 8 
     name rtibia
     direction -0.34202 -0.939693 0   
     length 6.59503   
     axis 0 0 -20   XYZ
    dof rx
    limits (-10.0 170.0)
 end
 begin
     id 9 
     name rfoot
     direction -0.101977 -0.280179 0.954516   
     length 1.93723  
     axis -90 -7.62852e-016 -20   XYZ
    dof rx rz
    limits (-45.0 90.0)
           (-20.0 70.0)
  end
  begin
     id 10 
     name rtoes
     direction -1.53564e-011 -4.21897e-011 1   
     length 0.970315   
     axis -90 -7.62852e-016 -20   XYZ
    dof rx
    limits (-90.0 20.0)
  end
  begin
     id 11 
     name lowerback
     direction -0.0339559 0.999421 -0.00235966   
     length 1.88543   
     axis 0 0 0   XYZ
    dof rx ry rz
    limits (-20.0 45.0)
           (-30.0 30.0)
           (-30.0 30.0)
  end
  begin
     id 12 
     name upperback
     direction 0.00401003 0.999739 0.0224689   
     length 1.8856   
     axis 0 0 0   XYZ
    dof rx ry rz
    limits (-20.0 45.0)
           (-30.0 30.0)
           (-30.0 30.0)
  end
  begin
     id 13 
     name thorax
     direction 0.0198619 0.999546 0.0226536   
     length 1.88352   
     axis 0 0 0   XYZ
    dof rx ry rz
    limits (-20.0 45.0)
           (-30.0 30.0)
           (-30.0 30.0)
  end
  begin
     id 14 
     name lowerneck
     direction -0.0461848 0.998632 0.0245198   
     length 1.34895   
     axis 0 0 0   XYZ
    dof rx ry rz
    limits (-20.0 45.0)
           (-30.0 30.0)
           (-30.0 30.0)
  end
  begin
     id 15 
     name upperneck
     direction -0.0180627 0.994724 -0.100984   
     length 1.35214   
     axis 0 0 0   XYZ
    dof rx ry rz
    limits (-20.0 45.0)
           (-30.0 30.0)
           (-30.0 30.0)
  end
  begin
     id 16
     name head
     direction -0.00374772 0.999293 -0.037403  
     length 1.3568  
     axis 0 0 0   XYZ
    dof rx ry rz
    limits (-20.0 45.0)
           (-30.0 30.0)
           (-30.0 30.0)
  end
  begin
     id 17 
     name lclavicle
     direction 0.971773 0.191119 0.138311  
     length 2.84954  
     axis 0 0 0   XYZ
    dof ry rz
    limits (-20.0 10.0)
           (0.0 20.0)
  end
  begin
     id 18 
     name lhumerus
     direction 1 -4.4897e-011 -2.43761e-027   
     length 4.40919   
     axis 180 -30 -90   XYZ
    dof rx ry rz
    limits (-60.0 90.0)
           (-90.0 90.0)
           (-90.0 90.0)
  end
  begin
     id 19
     name lradius
     direction 1 -4.4896e-011 -9.1621e-027   
     length 3.03857   
     axis 180 -30 -90   XYZ
    dof rx
    limits (-10.0 170.0)
  end
  begin
     id 20
     name lwrist
     direction 1 -4.4896e-011 -1.41363e-026   
     length 1.51928   
     axis 1.07133e-014 90 90   XYZ
    dof ry
    limits (-180.0 0.0)
 end
  begin
     id 21 
     name lhand
     direction 1 -4.48978e-011 -2.82725e-026   
     length 0.523208   
     axis 1.80403e-014 90 90   XYZ
    dof rx rz
    limits (-90.0 90.0)
           (-45.0 45.0)
  end
  begin
     id 22 
     name lfingers
     direction 1 -4.48977e-011 -5.6545e-026   
     length 0.421824   
     axis 3.60806e-014 90 90   XYZ
    dof rx
    limits (0.0 90.0)
  end
  begin
     id 23
     name lthumb
     direction 0.707107 -6.34962e-011 0.707107   
     length 0.605657   
     axis -90 45 2.85299e-015   XYZ
    dof rx rz
    limits (-45.0 45.0)
           (-45.0 45.0)
  end
  begin
     id 24 
     name rclavicle
     direction -0.957247 0.24311 0.156766   
     length 3.12406  
     axis 0 0 0   XYZ 
    dof ry rz
    limits (-10.0 20.0)
           (-20.0 0.0)
  end
  begin
     id 25 
     name rhumerus
     direction -1 -4.48964e-011 -1.70632e-027  
     length 4.61969   
     axis 180 30 90   XYZ
    dof rx ry rz
    limits (-90.0 60.0)
           (-90.0 90.0)
           (-90.0 90.0)
  end
  begin
     id 26 
     name rradius
     direction -1 -4.48966e-011 -6.60395e-027   
     length 3.09382   
     axis 180 30 90   XYZ
    dof rx
    limits (-10.0 170.0)
  end
  begin
     id 27 
     name rwrist
     direction -1 -4.48963e-011 -1.41363e-026   
     length 1.54691   
     axis 1.07133e-014 -90 -90   XYZ
    dof ry
    limits (-180.0 0.0)
  end
  begin
     id 28
     name rhand
     direction -1 -4.49013e-011 -2.82725e-026   
     length 0.500896   
     axis 1.80403e-014 -90 -90   XYZ
    dof rx rz
    limits (-90.0 90.0)
           (-45.0 45.0)
  end
  begin
     id 29
     name rfingers
     direction -1 -4.48902e-011 -5.6545e-026   
     length 0.403835   
     axis 3.60806e-014 -90 -90   XYZ
    dof rx
    limits (0.0 90.0)
  end
  begin
     id 30
     name rthumb
     direction -0.707107 -6.34953e-011 0.707107   
     length 0.579829   
     axis -90 -45 -2.85299e-015   XYZ
    dof rx rz
    limits (-45.0 45.0)
           (-45.0 45.0)
  end
:hierarchy
  begin
    root lhipjoint rhipjoint lowerback
    lhipjoint lfemur
    lfemur ltibia
    ltibia lfoot
    lfoot ltoes
    rhipjoint rfemur
    rfemur rtibia
    rtibia rfoot
    rfoot rtoes
    lowerback upperback
    upperback thorax
    thorax lowerneck lclavicle rclavicle
    lowerneck upperneck
    upperneck head
    lclavicle lhumerus
    lhumerus lradius
    lradius lwrist
    lwrist lhand lthumb
    lhand lfingers
    rclavicle rhumerus
    rhumerus rradius
    rradius rwrist
    rwrist rhand rthumb
    rhand rfingers
  end

#!OML:ASF E:\madness\Project 1\Capture day 1\Session 1\Female1.ASF
:FULLY-SPECIFIED
:DEGREES
379
root 9.05475 16.004 0.804761 -158.768 -73.3313 179.755
lowerback 30.3647 3.98962 -0.867104
upperback 10.6811 3.35606 -1.61085
thorax -4.52911 1.12588 -2.35041
lowerneck -6.05415 9.20606 5.15847
upperneck 8.38996 13.9523 -21.6382
head 5.50765 5.91607 -6.60107
rclavicle 3.57812e-014 -5.76476e-015
rhumerus -32.9614 -13.1586 -11.5575
rradius 115.423
rwrist -33.5771
rhand -15.7517 -40.817
rfingers 7.12502
rthumb 10.4397 -70.5378
lclavicle 3.57812e-014 -5.76476e-015
lhumerus -53.284 24.9547 38.6267
lradius 91.5344
lwrist 4.71301
lhand -56.5681 -2.02753
lfingers 7.12502
lthumb -28.879 25.757
rfemur -52.0067 12.4138 -1.87533
rtibia 55.9368
rfoot -15.4544 -8.37791
rtoes 5.14151
lfemur -44.9679 -11.7325 -7.81571
ltibia 40.0776
lfoot -5.24768 10.9542
ltoes -13.97
380
root 9.08974 16.0233 0.696124 -157.661 -73.4 178.754
lowerback 29.9941 4.04294 -1.33439
upperback 10.712 3.30015 -1.77962
thorax -4.34468 1.09913 -2.23392
lowerneck -7.46375 9.22887 4.51229
upperneck 8.94066 13.9489 -19.4817
head 5.69958 5.89946 -5.73121
rclavicle -2.5842e-014 2.46493e-014
rhumerus -32.5874 -12.7655 -12.3917
rradius 116.83
rwrist -32.748
rhand -16.0368 -38.8706
rfingers 7.12502
rthumb 10.1647 -68.605
lclavicle -2.5842e-014 2.46493e-014
lhumerus -54.6794 25.88 37.4053
lradius 92.6733
lwrist 4.66374
lhand -56.6056 0.782918
lfingers 7.12502
lthumb -28.9148 28.5613
rfemur -51.7267 12.3392 -1.84317
rtibia 55.8327
rfoot -15.0379 -8.53257
rtoes 4.92243
lfemur -45.0432 -11.5834 -7.65415
ltibia 39.8601
lfoot -4.86524 10.5471
ltoes -14.6823
381
root 9.1369 16.0332 0.585033 -156.336 -73.6237 177.496
lowerback 29.9623 4.21748 -1.31399
upperback 10.5747 3.5278 -2.03541
thorax -4.45817 1.2236 -2.60586
lowerneck -6.5428 9.18199 4.40638
upperneck 8.63711 13.893 -20.1846
head 5.48695 5.89933 -5.98805
rclavicle -4.37326e-015 2.98177e-015
rhumerus -33.4136 -12.8226 -13.2011
rradius 118.494
rwrist -31.4776
rhand -15.232 -38.6518
rfingers 7.12502
rthumb 10.941 -68.3467
lclavicle -4.37326e-015 2.98177e-015
lhumerus -55.4812 26.3842 37.132
lradius 94.0213
lwrist 4.09589
lhand -56.7095 1.0669
lfingers 7.12502
lthumb -29.014 28.8282
rfemur -51.3961 12.1453 -1.7798
rtibia 55.6584
rfoot -14.3046 -8.61835
rtoes 3.54363
lfemur -45.2554 -11.2637 -7.56144
ltibia 39.7107
lfoot -4.41646 9.63875
ltoes -14.5995
382
root 9.1831 16.0426 0.468312 -155.181 -73.8892 176.37
lowerback 29.9525 4.48623 -1.24682
upperback 10.3862 3.89961 -2.20561
thorax -4.63413 1.41824 -2.96051
lowerneck -6.00325 8.99283 4.48674
upperneck 8.75143 13.661 -20.5375
head 5.42883 5.79089 -6.16561
rclavicle -3.57812e-015 2.5842e-015
rhumerus -34.493 -12.9317 -13.608
rradius 120.059
rwrist -30.4056
rhand -14.4517 -39.1775
rfingers 7.12502
rthumb 11.6935 -68.8311
lclavicle -3.57812e-015 2.5842e-015
lhumerus -55.7822 26.0045 36.7698
lradius 95.1386
lwrist 4.30303
lhand -56.8459 0.580282
lfingers 7.12502
lthumb -29.1443 28.3191
rfemur -50.9285 12.0864 -1.64909
rtibia 55.3355
rfoot -13.2858 -8.65356
rtoes 2.14098
lfemur -45.4762 -10.9128 -7.36989
ltibia 39.5734
lfoot -3.97778 8.49605
ltoes -14.2878
383
root 9.22499 16.0541 0.346137 -154.319 -74.1624 175.52
lowerback 29.7672 4.70407 -1.51695
upperback 10.2634 4.1256 -2.27179
thorax -4.69258 1.53385 -2.94797
lowerneck -5.70173 8.94468 4.27291
upperneck 8.83529 13.5916 -20.3094
head 5.35786 5.7737 -6.07751
rclavicle 4.92986e-014 -1.78906e-015
rhumerus -35.1159 -12.963 -13.9885
rradius 121.419
rwrist -29.625
rhand -14.5385 -38.6121
rfingers 7.12502
rthumb 11.6099 -68.2705
lclavicle 4.92986e-014 -1.78906e-015
lhumerus -56.4696 26.0109 36.3309
lradius 96.686
lwrist 4.6069
lhand -56.684 1.57394
lfingers 7.12502
lthumb -28.9897 29.3395
rfemur -50.2842 12.1338 -1.40498
rtibia 54.7922
rfoot -11.9272 -8.69172
rtoes 0.8956
lfemur -45.6306 -10.8084 -6.96181
ltibia 39.4209
lfoot -3.42081 7.58008
ltoes -14.5807
384
root 9.26333 16.0669 0.222259 -153.148 -74.7867 174.339
lowerback 29.489 4.71654 -1.55296
upperback 10.2332 4.15314 -2.40852
thorax -4.58872 1.55946 -3.07226
lowerneck -5.63923 8.92856 4.40195
upperneck 9.03722 13.5773 -20.1691
head 5.40332 5.76976 -6.05776
rclavicle 6.52014e-014 5.68524e-014
rhumerus -35.8621 -13.327 -14.716
rradius 122.676
rwrist -28.6215
rhand -14.5558 -37.749
rfingers 7.12502
rthumb 11.5931 -67.4083
lclavicle 6.52014e-014 5.68524e-014
lhumerus -56.731 26.2482 35.9321
lradius 98.2432
lwrist 5.14906
lhand -56.1942 2.22926
lfingers 7.12502
lthumb -28.5218 30.0742
rfemur -49.3135 11.9247 -1.00787
rtibia 53.9931
rfoot -10.1956 -8.78615
rtoes -1.29993
lfemur -45.8487 -10.9947 -6.50629
ltibia 39.3004
lfoot -2.67678 6.68605
ltoes -14.8518
385
root 9.29621 16.0766 0.095233 -150.951 -76.1277 172.058
lowerback 29.1397 4.44488 -1.18889
upperback 10.349 3.93884 -2.47628
thorax -4.2751 1.47599 -3.2604
lowerneck -5.80314 8.90277 4.49972
upperneck 9.35581 13.5262 -19.5146
head 5.47665 5.75784 -5.85989
rclavicle 6.83819e-014 -2.94201e-014
rhumerus -36.7013 -14.0175 -15.4325
rradius 123.788
rwrist -27.7222
rhand -14.5564 -37.3305
rfingers 7.12502
rthumb 11.5925 -66.9899
lclavicle 6.83819e-014 -2.94201e-014
lhumerus -56.4562 26.6164 35.9453
lradius 99.7482
lwrist 5.44813
lhand -55.8198 2.3511
lfingers 7.12502
lthumb -28.164 30.2555
rfemur -47.8164 11.2168 -0.41146
rtibia 52.9257
rfoot -8.0746 -8.90444
rtoes -3.10371
lfemur -46.3067 -11.4766 -6.10007
ltibia 39.2378
lfoot -2.11893 5.4297
ltoes -13.598
386
root 9.33338 16.072 -0.0438343 -149.923 -76.9004 170.924
lowerback 28.7533 4.52954 -1.30835
upperback 10.4885 4.03983 -2.43749
thorax -3.94724 1.52916 -3.15242
lowerneck -6.14636 8.90232 4.09166
upperneck 9.51877 13.5455 -19.0415
head 5.52552 5.75004 -5.62445
rclavicle 9.89948e-014 -4.49253e-014
rhumerus -37.3375 -14.772 -16.0541
rradius 124.725
rwrist -27.5028
rhand -15.3219 -36.9409
rfingers 7.12502
rthumb 10.8542 -66.6404
lclavicle 9.89948e-014 -4.49253e-014
lhumerus -56.0855 26.9278 36.1337
lradius 101.234
lwrist 5.36342
lhand -55.7415 2.79619
lfingers 7.12502
lthumb -28.0892 30.7129
rfemur -46.4819 11.0334 0.273856
rtibia 51.5569
rfoot -5.40205 -8.80001
rtoes -4.94406
lfemur -46.622 -11.4575 -5.55139
ltibia 39.3202
lfoot -1.92124 4.35854
ltoes -12.6415
387
root 9.36653 16.0611 -0.186112 -148.97 -77.8471 169.698
lowerback 28.4635 4.47974 -1.48296
upperback 10.6014 3.96127 -2.32954
thorax -3.71153 1.49101 -2.8888
lowerneck -6.20173 8.98703 3.75538
upperneck 9.62344 13.6748 -18.7346
head 5.53657 5.80826 -5.45609
rclavicle -8.74653e-015 3.18055e-014
rhumerus -37.6929 -15.3525 -16.9457
rradius 125.468
rwrist -27.5244
rhand -16.3461 -36.5122
rfingers 7.12502
rthumb 9.86626 -66.261
lclavicle -8.74653e-015 3.18055e-014
lhumerus -55.8943 27.1578 36.1698
lradius 102.734
lwrist 5.26206
lhand -55.7391 2.9304
lfingers 7.12502
lthumb -28.0868 30.8475
rfemur -44.7792 10.7772 1.16699
rtibia 49.9485
rfoot -3.14888 -8.85549
rtoes -7.15789
lfemur -46.8339 -11.5297 -4.99551
ltibia 39.597
lfoot -1.78996 3.36455
ltoes -19.1133
388
root 9.40172 16.0389 -0.319947 -147.992 -78.8967 168.4
lowerback 28.3237 4.30769 -1.5505
upperback 10.6424 3.75667 -2.20353
thorax -3.62332 1.39335 -2.64058
lowerneck -5.98248 9.11416 3.5531
upperneck 9.51285 13.8246 -18.5619
head 5.45419 5.90376 -5.36284
rclavicle 4.77083e-014 -4.01545e-014
rhumerus -38.0081 -15.798 -18.073
rradius 126.226
rwrist -27.5294
rhand -16.6231 -36.6089
rfingers 7.12502
rthumb 9.59903 -66.3702
lclavicle 4.77083e-014 -4.01545e-014
lhumerus -55.6858 27.3995 36.3663
lradius 104.256
lwrist 4.91882
lhand -55.6367 3.56449
lfingers 7.12502
lthumb -27.9889 31.4976
rfemur -42.9309 10.2323 2.22013
rtibia 48.1259
rfoot -5.41723 -8.42248
rtoes -11.4804
lfemur -47.0787 -11.5413 -4.5422
ltibia 39.9904
lfoot -1.60502 2.31121
ltoes -19.7517
389
root 9.44137 15.9932 -0.459511 -146.44 -79.9751 166.673
lowerback 28.1074 4.16329 -1.53573
upperback 10.6336 3.61552 -2.1327
thorax -3.54206 1.33326 -2.51746
lowerneck -5.89817 9.17815 3.38807
upperneck 9.53371 13.9009 -18.323
head 5.42415 5.95213 -5.25661
rclavicle 3.57812e-015 2.82274e-014
rhumerus -38.6906 -16.3555 -19.3461
rradius 126.926
rwrist -27.4477
rhand -16.9424 -37.104
rfingers 7.12502
rthumb 9.29093 -66.8792
lclavicle 3.57812e-015 2.82274e-014
lhumerus -54.8626 27.458 36.9908
lradius 105.763
lwrist 4.51447
lhand -55.4661 5.61444
lfingers 7.12502
lthumb -27.8259 33.5741
rfemur -40.7292 9.3245 3.42943
rtibia 46.1724
rfoot -9.20405 -10.177
rtoes -7.59199
lfemur -47.4864 -11.4689 -4.05599
ltibia 40.2911
lfoot -1.37652 1.11713
ltoes -21.2931
